<svg width="44" height="16" viewBox="0 0 44 16" fill="none" xmlns="http://www.w3.org/2000/svg">
<path d="M1.452 3.848H2.568V6.056H3.936V6.932H2.568V11H1.452V6.932H0.54V6.056H1.452V3.848ZM6.8565 11.192C6.4085 11.192 6.0365 11.056 5.7405 10.784C5.4525 10.504 5.3005 10.144 5.2845 9.704V6.032H6.4005V9.308C6.4165 9.58 6.4925 9.8 6.6285 9.968C6.7725 10.136 6.9965 10.224 7.3005 10.232C7.5805 10.232 7.8285 10.152 8.0445 9.992C8.2685 9.824 8.4485 9.6 8.5845 9.32C8.7205 9.032 8.7885 8.708 8.7885 8.348V6.032H9.9045V11H8.8845L8.7885 9.776L8.8485 9.992C8.7525 10.224 8.6045 10.432 8.4045 10.616C8.2125 10.792 7.9845 10.932 7.7205 11.036C7.4565 11.14 7.1685 11.192 6.8565 11.192ZM14.7633 11.12C14.3873 11.12 14.0233 11.032 13.6713 10.856C13.3273 10.68 13.0593 10.444 12.8673 10.148L12.9393 9.8V13.388H11.8353V5.96H12.7953L12.9513 7.232L12.8313 6.884C13.0713 6.58 13.3753 6.328 13.7433 6.128C14.1113 5.928 14.5233 5.828 14.9793 5.828C15.4433 5.828 15.8593 5.94 16.2273 6.164C16.6033 6.388 16.8993 6.7 17.1153 7.1C17.3313 7.5 17.4393 7.968 17.4393 8.504C17.4393 9.04 17.3233 9.504 17.0913 9.896C16.8593 10.288 16.5393 10.592 16.1313 10.808C15.7313 11.016 15.2753 11.12 14.7633 11.12ZM14.5473 10.232C14.8673 10.232 15.1593 10.16 15.4233 10.016C15.6953 9.864 15.9113 9.66 16.0713 9.404C16.2313 9.14 16.3113 8.844 16.3113 8.516C16.3113 8.18 16.2353 7.884 16.0833 7.628C15.9313 7.364 15.7273 7.156 15.4713 7.004C15.2233 6.852 14.9433 6.776 14.6313 6.776C14.3433 6.776 14.0833 6.832 13.8513 6.944C13.6193 7.056 13.4273 7.212 13.2753 7.412C13.1233 7.604 13.0153 7.828 12.9513 8.084V8.912C12.9913 9.168 13.0873 9.396 13.2393 9.596C13.3913 9.796 13.5793 9.952 13.8033 10.064C14.0353 10.176 14.2833 10.232 14.5473 10.232ZM19.9446 6.032L20.0526 7.472L19.9926 7.28C20.1206 6.976 20.3046 6.72 20.5446 6.512C20.7926 6.296 21.0486 6.132 21.3126 6.02C21.5846 5.9 21.8206 5.84 22.0206 5.84L21.9606 6.944C21.5846 6.92 21.2526 6.992 20.9646 7.16C20.6846 7.328 20.4606 7.552 20.2926 7.832C20.1326 8.112 20.0526 8.412 20.0526 8.732V11H18.9486V6.032H19.9446ZM22.8173 8.468C22.8173 7.972 22.9333 7.524 23.1653 7.124C23.4053 6.724 23.7333 6.408 24.1493 6.176C24.5653 5.944 25.0373 5.828 25.5653 5.828C26.1093 5.828 26.5853 5.944 26.9933 6.176C27.4013 6.408 27.7173 6.724 27.9413 7.124C28.1653 7.524 28.2773 7.972 28.2773 8.468C28.2773 8.964 28.1653 9.416 27.9413 9.824C27.7173 10.224 27.3973 10.54 26.9813 10.772C26.5733 11.004 26.0973 11.12 25.5533 11.12C25.0253 11.12 24.5533 11.012 24.1373 10.796C23.7293 10.572 23.4053 10.264 23.1653 9.872C22.9333 9.472 22.8173 9.004 22.8173 8.468ZM23.9333 8.48C23.9333 8.8 24.0053 9.092 24.1493 9.356C24.2933 9.612 24.4853 9.816 24.7253 9.968C24.9733 10.12 25.2453 10.196 25.5413 10.196C25.8533 10.196 26.1293 10.12 26.3693 9.968C26.6173 9.816 26.8093 9.612 26.9453 9.356C27.0813 9.092 27.1493 8.8 27.1493 8.48C27.1493 8.16 27.0813 7.872 26.9453 7.616C26.8093 7.352 26.6173 7.144 26.3693 6.992C26.1293 6.832 25.8533 6.752 25.5413 6.752C25.2373 6.752 24.9613 6.832 24.7133 6.992C24.4733 7.152 24.2813 7.364 24.1373 7.628C24.0013 7.884 23.9333 8.168 23.9333 8.48ZM30.1964 11V7.028H29.3444V6.032H30.1964V3.932C30.1964 3.212 30.3564 2.66 30.6764 2.276C31.0044 1.892 31.4844 1.7 32.1164 1.7C32.2844 1.7 32.4684 1.724 32.6684 1.772C32.8764 1.82 33.0564 1.9 33.2084 2.012L32.7404 2.816C32.6684 2.744 32.5884 2.696 32.5004 2.672C32.4124 2.64 32.3244 2.624 32.2364 2.624C31.9404 2.624 31.7124 2.724 31.5524 2.924C31.3924 3.124 31.3124 3.464 31.3124 3.944V6.032H32.8844V7.028H31.3124V11H30.1964ZM36.3698 11.12C35.8018 11.12 35.3138 11.008 34.9058 10.784C34.4978 10.552 34.1818 10.24 33.9578 9.848C33.7418 9.448 33.6338 8.992 33.6338 8.48C33.6338 7.992 33.7578 7.548 34.0058 7.148C34.2538 6.748 34.5858 6.428 35.0018 6.188C35.4178 5.948 35.8818 5.828 36.3938 5.828C37.0498 5.828 37.5938 6.02 38.0258 6.404C38.4578 6.788 38.7498 7.316 38.9018 7.988L34.8098 9.428L34.5458 8.768L37.9058 7.544L37.6658 7.7C37.5698 7.436 37.4098 7.208 37.1858 7.016C36.9618 6.816 36.6698 6.716 36.3098 6.716C36.0058 6.716 35.7338 6.792 35.4938 6.944C35.2538 7.088 35.0658 7.288 34.9298 7.544C34.7938 7.8 34.7258 8.092 34.7258 8.42C34.7258 8.764 34.7978 9.068 34.9418 9.332C35.0858 9.588 35.2818 9.792 35.5298 9.944C35.7858 10.088 36.0738 10.16 36.3938 10.16C36.6098 10.16 36.8178 10.12 37.0178 10.04C37.2258 9.96 37.4178 9.856 37.5938 9.728L38.1098 10.556C37.8618 10.724 37.5818 10.86 37.2698 10.964C36.9658 11.068 36.6658 11.12 36.3698 11.12Z" fill="white"/>
<path d="M16 13C17.1111 14.5092 20.2667 16.6222 24 13" stroke="white"/>
<path d="M36 2.5V0M39 3.5L41 1.5M40.5 6.5L43.5 5.5" stroke="#F4CBD3"/>
</svg>
